<?xml version="1.0" encoding="utf-8"?>
<!-- Generator: Adobe Illustrator 16.0.4, SVG Export Plug-In . SVG Version: 6.00 Build 0)  -->
<!DOCTYPE svg PUBLIC "-//W3C//DTD SVG 1.1//EN" "http://www.w3.org/Graphics/SVG/1.1/DTD/svg11.dtd">
<svg version="1.1" id="Layer_1" xmlns="http://www.w3.org/2000/svg" xmlns:xlink="http://www.w3.org/1999/xlink" x="0px" y="0px"
	 width="498.669px" height="200.749px" viewBox="0 0 498.669 200.749" enable-background="new 0 0 498.669 200.749"
	 xml:space="preserve">
<g>
	<g>
		<path fill="#FFFFFF" d="M316.316,140.043c-0.174-0.183-0.382-0.325-0.625-0.428c-0.243-0.102-0.515-0.152-0.814-0.152
			s-0.571,0.051-0.814,0.152c-0.243,0.103-0.452,0.245-0.626,0.428c-0.174,0.184-0.308,0.4-0.4,0.652s-0.14,0.525-0.14,0.819
			c0,0.3,0.047,0.575,0.14,0.823c0.093,0.25,0.227,0.465,0.4,0.648s0.383,0.325,0.626,0.428c0.243,0.102,0.515,0.152,0.814,0.152
			s0.571-0.051,0.814-0.152c0.243-0.103,0.451-0.244,0.625-0.428c0.175-0.184,0.308-0.398,0.401-0.648
			c0.093-0.248,0.139-0.523,0.139-0.823c0-0.294-0.046-0.567-0.139-0.819C316.624,140.444,316.491,140.227,316.316,140.043z
			 M234.208,57.897c0.204-0.153,0.364-0.354,0.481-0.603c0.117-0.249,0.175-0.553,0.175-0.914c0-0.312-0.059-0.583-0.175-0.814
			c-0.117-0.231-0.274-0.421-0.473-0.571c-0.198-0.15-0.431-0.262-0.697-0.337c-0.267-0.075-0.548-0.113-0.842-0.113h-0.828v3.78
			h0.729c0.324,0,0.626-0.033,0.905-0.099S234.003,58.05,234.208,57.897z M308.748,89.8c-0.494-0.228-1.046-0.374-1.653-0.437
			c-0.608-0.063-1.191-0.095-1.748-0.095h-3.04v6.384h3.952c0.532,0,1.045-0.051,1.539-0.152s0.937-0.272,1.33-0.513
			c0.393-0.241,0.709-0.57,0.949-0.988c0.241-0.418,0.361-0.943,0.361-1.577c0-0.684-0.158-1.235-0.475-1.653
			C309.646,90.351,309.241,90.028,308.748,89.8z M155.479,142.163h1.557l-0.783-1.979L155.479,142.163z M246.01,94.854
			c0.443-0.101,0.842-0.266,1.197-0.494c0.354-0.228,0.64-0.532,0.855-0.912c0.215-0.38,0.323-0.836,0.323-1.368
			c0-0.557-0.121-1.02-0.361-1.387s-0.551-0.652-0.931-0.855c-0.38-0.203-0.811-0.348-1.292-0.437
			c-0.481-0.088-0.95-0.133-1.406-0.133h-4.028v5.738h4.294C245.117,95.006,245.566,94.955,246.01,94.854z M279.92,140.043
			c-0.174-0.183-0.382-0.325-0.625-0.428c-0.243-0.102-0.515-0.152-0.814-0.152s-0.571,0.051-0.814,0.152
			c-0.243,0.103-0.452,0.245-0.626,0.428c-0.174,0.184-0.308,0.4-0.4,0.652s-0.14,0.525-0.14,0.819c0,0.3,0.047,0.575,0.14,0.823
			c0.093,0.25,0.227,0.465,0.4,0.648s0.383,0.325,0.626,0.428c0.243,0.102,0.515,0.152,0.814,0.152s0.571-0.051,0.814-0.152
			c0.243-0.103,0.451-0.244,0.625-0.428c0.175-0.184,0.308-0.398,0.401-0.648c0.093-0.248,0.139-0.523,0.139-0.823
			c0-0.294-0.046-0.567-0.139-0.819C280.228,140.444,280.095,140.227,279.92,140.043z M134.762,142.163h1.557l-0.783-1.979
			L134.762,142.163z M288.423,54.963c-0.15-0.183-0.339-0.325-0.567-0.427c-0.228-0.102-0.491-0.153-0.792-0.153
			c-0.3,0-0.579,0.051-0.837,0.153s-0.485,0.245-0.684,0.427c-0.198,0.183-0.361,0.401-0.49,0.653
			c-0.13,0.252-0.215,0.525-0.257,0.819c-0.042,0.3-0.033,0.575,0.027,0.824c0.06,0.249,0.163,0.465,0.311,0.648
			c0.146,0.183,0.334,0.325,0.562,0.427c0.228,0.102,0.491,0.153,0.792,0.153c0.3,0,0.578-0.051,0.837-0.153
			c0.258-0.102,0.485-0.244,0.684-0.427s0.361-0.399,0.49-0.648s0.215-0.523,0.257-0.824c0.042-0.294,0.034-0.567-0.022-0.819
			C288.676,55.364,288.573,55.146,288.423,54.963z M323.678,139.647c-0.103-0.051-0.219-0.085-0.351-0.104
			c-0.133-0.018-0.262-0.026-0.388-0.026h-0.918v1.449h0.828c0.126,0,0.26-0.005,0.4-0.014c0.142-0.009,0.269-0.036,0.383-0.081
			s0.208-0.115,0.283-0.211s0.112-0.231,0.112-0.405c0-0.162-0.032-0.291-0.099-0.388
			C323.864,139.772,323.78,139.699,323.678,139.647z M307.802,142.19c-0.113-0.048-0.236-0.08-0.368-0.099
			c-0.133-0.019-0.256-0.027-0.369-0.027h-1.062v1.449h1.26c0.108,0,0.218-0.013,0.329-0.036c0.11-0.023,0.211-0.066,0.302-0.126
			c0.09-0.06,0.163-0.138,0.22-0.233c0.058-0.096,0.086-0.213,0.086-0.352c0-0.15-0.037-0.271-0.112-0.364
			S307.917,142.239,307.802,142.19z M196.289,55.103l-1.053,1.98h1.557L196.289,55.103z M307.339,140.84
			c0.104-0.023,0.199-0.062,0.283-0.117s0.151-0.126,0.202-0.216c0.052-0.091,0.077-0.198,0.077-0.324
			c0-0.132-0.028-0.241-0.086-0.329c-0.057-0.086-0.13-0.154-0.221-0.201c-0.09-0.049-0.191-0.083-0.306-0.104
			c-0.114-0.021-0.225-0.032-0.333-0.032h-0.954v1.358h1.018C307.127,140.875,307.234,140.864,307.339,140.84z M298.451,142.163
			h1.558l-0.783-1.979L298.451,142.163z M149.616,55.913c0.12-0.024,0.231-0.064,0.333-0.122c0.102-0.057,0.189-0.135,0.261-0.234
			c0.072-0.099,0.117-0.224,0.135-0.374c0.024-0.162,0.004-0.292-0.059-0.392s-0.15-0.175-0.261-0.229
			c-0.111-0.054-0.237-0.088-0.378-0.104c-0.141-0.015-0.277-0.022-0.409-0.022h-0.72l-0.207,1.512h0.936
			C149.373,55.949,149.496,55.937,149.616,55.913z M215.604,57.083h1.557l-0.783-1.98L215.604,57.083z M122,91.491
			c-0.735-0.772-1.615-1.374-2.641-1.805c-1.026-0.43-2.172-0.646-3.439-0.646c-1.267,0-2.413,0.216-3.439,0.646
			c-1.026,0.431-1.907,1.033-2.641,1.805c-0.735,0.773-1.298,1.691-1.691,2.755c-0.393,1.064-0.589,2.217-0.589,3.458
			c0,1.267,0.196,2.426,0.589,3.477c0.393,1.052,0.956,1.964,1.691,2.736c0.734,0.773,1.615,1.375,2.641,1.805
			c1.026,0.432,2.172,0.646,3.439,0.646c1.267,0,2.413-0.215,3.439-0.646c1.026-0.43,1.906-1.031,2.641-1.805
			c0.734-0.771,1.298-1.684,1.691-2.736c0.393-1.051,0.589-2.21,0.589-3.477c0-1.241-0.196-2.394-0.589-3.458
			C123.297,93.182,122.734,92.264,122,91.491z M205.096,139.647c-0.102-0.051-0.219-0.085-0.351-0.104
			c-0.132-0.018-0.261-0.026-0.387-0.026h-0.918v1.449h0.828c0.126,0,0.26-0.005,0.4-0.014c0.141-0.009,0.269-0.036,0.383-0.081
			c0.114-0.045,0.208-0.115,0.283-0.211c0.075-0.096,0.113-0.231,0.113-0.405c0-0.162-0.033-0.291-0.099-0.388
			C205.282,139.772,205.198,139.699,205.096,139.647z M259.734,139.647c-0.103-0.051-0.219-0.085-0.351-0.104
			c-0.133-0.018-0.262-0.026-0.388-0.026h-0.918v1.449h0.828c0.126,0,0.26-0.005,0.4-0.014c0.142-0.009,0.269-0.036,0.383-0.081
			s0.208-0.115,0.283-0.211s0.112-0.231,0.112-0.405c0-0.162-0.032-0.291-0.099-0.388
			C259.919,139.772,259.835,139.699,259.734,139.647z M335.147,55.872c0.142-0.009,0.269-0.036,0.383-0.081s0.208-0.115,0.283-0.211
			c0.075-0.096,0.112-0.231,0.112-0.405c0-0.162-0.032-0.291-0.099-0.387c-0.066-0.096-0.15-0.169-0.252-0.221
			c-0.103-0.051-0.219-0.085-0.351-0.104c-0.133-0.018-0.262-0.027-0.388-0.027h-0.918v1.449h0.828
			C334.873,55.886,335.006,55.881,335.147,55.872z M183.028,140.043c-0.174-0.183-0.383-0.325-0.625-0.428
			c-0.243-0.102-0.515-0.152-0.814-0.152c-0.3,0-0.572,0.051-0.814,0.152c-0.243,0.103-0.452,0.245-0.625,0.428
			c-0.174,0.184-0.308,0.4-0.401,0.652c-0.093,0.252-0.139,0.525-0.139,0.819c0,0.3,0.046,0.575,0.139,0.823
			c0.093,0.25,0.227,0.465,0.401,0.648c0.174,0.184,0.382,0.325,0.625,0.428c0.243,0.102,0.514,0.152,0.814,0.152
			c0.3,0,0.571-0.051,0.814-0.152c0.243-0.103,0.451-0.244,0.625-0.428c0.174-0.184,0.307-0.398,0.4-0.648
			c0.093-0.248,0.14-0.523,0.14-0.823c0-0.294-0.047-0.567-0.14-0.819C183.335,140.444,183.202,140.227,183.028,140.043z M0,0
			v200.749h498.669V0H0z M368.353,53.249h5.039v1.242h-1.817v5.13h-1.404v-5.13h-1.817V53.249z M360.253,53.249h1.907l2.709,4.428
			h0.019v-4.428h1.403v6.372h-1.836l-2.78-4.536h-0.019v4.536h-1.403V53.249z M349.214,57.366c-0.147-0.111-0.332-0.206-0.554-0.284
			c-0.222-0.078-0.462-0.156-0.72-0.234s-0.498-0.183-0.72-0.315c-0.223-0.132-0.407-0.306-0.554-0.522
			c-0.147-0.216-0.221-0.501-0.221-0.855c0-0.342,0.067-0.642,0.202-0.9c0.136-0.258,0.315-0.474,0.54-0.648
			c0.226-0.174,0.484-0.304,0.779-0.391c0.294-0.087,0.597-0.131,0.908-0.131c0.36,0,0.708,0.051,1.044,0.153
			s0.64,0.273,0.909,0.513l-0.963,1.053c-0.114-0.144-0.269-0.25-0.463-0.319c-0.195-0.069-0.38-0.104-0.554-0.104
			c-0.103,0-0.207,0.012-0.315,0.036c-0.107,0.024-0.21,0.062-0.306,0.113c-0.097,0.051-0.174,0.118-0.234,0.202
			c-0.06,0.084-0.09,0.186-0.09,0.306c0,0.192,0.072,0.339,0.216,0.441c0.145,0.102,0.325,0.189,0.545,0.261
			c0.219,0.072,0.454,0.144,0.706,0.216c0.252,0.072,0.487,0.174,0.707,0.306c0.219,0.132,0.4,0.309,0.544,0.531
			c0.145,0.222,0.216,0.519,0.216,0.891c0,0.354-0.065,0.663-0.197,0.927c-0.132,0.264-0.311,0.483-0.536,0.657
			c-0.225,0.174-0.485,0.303-0.782,0.387c-0.298,0.084-0.611,0.126-0.94,0.126c-0.414,0-0.799-0.063-1.152-0.189
			c-0.354-0.126-0.685-0.33-0.99-0.612l0.999-1.098c0.145,0.192,0.325,0.34,0.545,0.445c0.219,0.105,0.445,0.158,0.679,0.158
			c0.114,0,0.229-0.014,0.347-0.041c0.117-0.027,0.223-0.068,0.315-0.122c0.093-0.054,0.168-0.123,0.225-0.207
			c0.058-0.084,0.086-0.183,0.086-0.297C349.435,57.628,349.361,57.477,349.214,57.366z M339.751,53.249h4.329v1.296h-2.925v1.188
			h2.763v1.296h-2.763v1.296h3.087v1.296h-4.491V53.249z M332.515,53.249h2.466c0.324,0,0.631,0.032,0.922,0.095
			s0.546,0.168,0.766,0.315c0.219,0.147,0.393,0.345,0.521,0.594c0.129,0.249,0.193,0.56,0.193,0.932
			c0,0.45-0.116,0.833-0.351,1.147s-0.576,0.515-1.026,0.599l1.62,2.691h-1.683l-1.332-2.547h-0.693v2.547h-1.403V53.249z
			 M325.496,53.249h2.366c0.33,0,0.643,0.03,0.937,0.09c0.294,0.06,0.55,0.164,0.77,0.311c0.219,0.147,0.393,0.345,0.521,0.594
			s0.193,0.562,0.193,0.94c0,0.372-0.06,0.684-0.18,0.936s-0.285,0.453-0.495,0.603s-0.459,0.256-0.747,0.319
			s-0.6,0.095-0.936,0.095h-1.026v2.484h-1.403V53.249z M307.763,53.249h1.161l1.881,6.372h-1.584l-0.359-1.35h-2.476l-0.72,1.35
			h-1.548L307.763,53.249z M301.635,53.249h1.403l-0.891,6.372h-1.404L301.635,53.249z M292.968,53.249h1.908l2.088,4.428h0.018
			l0.621-4.428h1.404l-0.892,6.372h-1.836l-2.15-4.536h-0.019l-0.63,4.536h-1.403L292.968,53.249z M242.947,53.249h5.04
			l-0.171,1.242h-1.818l-0.72,5.13h-1.404l0.72-5.13h-1.818L242.947,53.249z M230.445,53.249h2.106c0.51,0,0.995,0.057,1.454,0.171
			c0.459,0.114,0.859,0.299,1.202,0.554c0.342,0.255,0.613,0.586,0.814,0.995c0.201,0.408,0.301,0.903,0.301,1.485
			c0,0.516-0.098,0.971-0.292,1.363c-0.195,0.393-0.458,0.723-0.788,0.99s-0.711,0.47-1.143,0.607
			c-0.432,0.138-0.885,0.207-1.359,0.207h-2.295V53.249z M201.923,53.249h1.908l2.088,4.428h0.018l0.621-4.428h1.404l-0.891,6.372
			h-1.836l-2.151-4.536h-0.018l-0.63,4.536h-1.404L201.923,53.249z M196.01,53.249h1.161l1.881,6.372h-1.584l-0.36-1.35h-2.475
			l-0.72,1.35h-1.548L196.01,53.249z M189.881,53.249h1.404l-0.891,6.372h-1.404L189.881,53.249z M172.736,53.249h1.404
			l-0.711,5.076h2.601l-0.18,1.296h-4.005L172.736,53.249z M162.468,53.249h1.404l-0.891,6.372h-1.404L162.468,53.249z
			 M154.305,53.249h1.404l-0.333,2.376h2.727l0.333-2.376h1.404l-0.891,6.372h-1.404l0.387-2.754h-2.727l-0.387,2.754h-1.404
			L154.305,53.249z M147.285,53.249h2.367c0.33,0,0.638,0.03,0.923,0.09c0.285,0.06,0.526,0.164,0.725,0.311
			c0.198,0.147,0.345,0.345,0.441,0.594c0.096,0.249,0.117,0.562,0.063,0.94c-0.054,0.372-0.159,0.684-0.315,0.936
			c-0.156,0.252-0.35,0.453-0.581,0.603s-0.495,0.256-0.792,0.319c-0.297,0.063-0.614,0.095-0.95,0.095h-1.026l-0.342,2.484h-1.404
			L147.285,53.249z M136.305,53.249h4.329l-0.18,1.296h-2.925l-0.171,1.188h2.763l-0.18,1.296h-2.763l-0.18,1.296h3.087l-0.18,1.296
			h-4.491L136.305,53.249z M120.969,53.249h5.04l-0.171,1.242h-1.818l-0.72,5.13h-1.404l0.72-5.13h-1.818L120.969,53.249z
			 M92.436,111.156h-7.752L72.942,92.004h-0.076v19.152h-5.928V84.252h8.056l11.438,18.696h0.076V84.252h5.928V111.156z
			 M129.353,103.555c-0.722,1.748-1.729,3.237-3.021,4.466c-1.292,1.229-2.825,2.173-4.598,2.831
			c-1.773,0.658-3.711,0.988-5.814,0.988c-2.103,0-4.041-0.33-5.814-0.988c-1.773-0.658-3.306-1.602-4.598-2.831
			c-1.292-1.229-2.299-2.718-3.021-4.466s-1.083-3.698-1.083-5.852c0-2.153,0.361-4.104,1.083-5.852
			c0.722-1.748,1.729-3.236,3.021-4.465c1.292-1.229,2.825-2.172,4.598-2.831c1.773-0.658,3.711-0.988,5.814-0.988
			c2.103,0,4.041,0.33,5.814,0.988c1.773,0.659,3.306,1.603,4.598,2.831c1.292,1.229,2.299,2.717,3.021,4.465
			c0.722,1.748,1.083,3.699,1.083,5.852C130.436,99.857,130.074,101.807,129.353,103.555z M128.97,56.867l-0.387,2.754h-1.404
			l0.891-6.372h1.404l-0.333,2.376h2.727l0.333-2.376h1.404l-0.891,6.372h-1.404l0.387-2.754H128.97z M137.345,144.702l-0.549-1.351
			h-2.475l-0.531,1.351h-1.548l2.754-6.373h1.161l2.772,6.373H137.345z M139.402,84.252h8.056l11.438,18.696h0.076V84.252h5.928
			v26.904h-7.752l-11.742-19.152h-0.076v19.152h-5.928V84.252z M146.957,144.702h-1.836l-2.781-4.537h-0.018v4.537h-1.404v-6.373
			h1.908l2.709,4.429h0.018v-4.429h1.404V144.702z M158.062,144.702l-0.549-1.351h-2.475l-0.531,1.351h-1.548l2.754-6.373h1.161
			l2.772,6.373H158.062z M167.665,144.702h-1.836l-2.781-4.537h-0.018v4.537h-1.404v-6.373h1.908l2.709,4.429h0.018v-4.429h1.404
			V144.702z M169.667,59.621h-4.005l0.891-6.372h1.404l-0.711,5.076h2.601L169.667,59.621z M175.896,142.897
			c-0.195,0.393-0.458,0.723-0.788,0.99c-0.33,0.267-0.711,0.469-1.143,0.607c-0.432,0.138-0.885,0.207-1.359,0.207h-2.295v-6.373
			h2.106c0.51,0,0.995,0.058,1.454,0.172c0.459,0.113,0.859,0.299,1.202,0.553c0.342,0.256,0.613,0.587,0.814,0.995
			c0.201,0.407,0.301,0.903,0.301,1.485C176.188,142.049,176.09,142.504,175.896,142.897z M178.847,53.249h1.404l-0.891,6.372
			h-1.404L178.847,53.249z M184.77,142.901c-0.171,0.414-0.409,0.767-0.715,1.058c-0.306,0.292-0.669,0.515-1.089,0.671
			s-0.879,0.234-1.377,0.234s-0.957-0.078-1.377-0.234c-0.42-0.156-0.783-0.379-1.089-0.671c-0.306-0.291-0.544-0.644-0.715-1.058
			s-0.256-0.875-0.256-1.386c0-0.51,0.085-0.972,0.256-1.386s0.41-0.767,0.715-1.058c0.306-0.291,0.669-0.515,1.089-0.671
			c0.42-0.156,0.879-0.234,1.377-0.234s0.957,0.078,1.377,0.234s0.783,0.38,1.089,0.671s0.544,0.644,0.715,1.058
			c0.171,0.414,0.257,0.876,0.257,1.386C185.026,142.026,184.941,142.487,184.77,142.901z M185.71,57.042
			c-0.297,0.063-0.614,0.095-0.95,0.095h-1.026l-0.342,2.484h-1.404l0.891-6.372h2.367c0.33,0,0.638,0.03,0.923,0.09
			c0.285,0.06,0.526,0.164,0.725,0.311c0.198,0.147,0.345,0.345,0.441,0.594c0.096,0.249,0.117,0.562,0.063,0.94
			c-0.054,0.372-0.159,0.684-0.315,0.936c-0.156,0.252-0.35,0.453-0.581,0.603S186.007,56.979,185.71,57.042z M190.372,144.702
			h-1.125l-2.547-6.373h1.602l1.575,4.177h0.018l1.602-4.177H193L190.372,144.702z M199.561,144.702h-4.491v-6.373h4.329v1.297
			h-2.925v1.188h2.763v1.297h-2.763v1.295h3.087V144.702z M205.465,144.702l-1.332-2.547h-0.693v2.547h-1.404v-6.373h2.466
			c0.324,0,0.632,0.032,0.923,0.096c0.291,0.062,0.546,0.168,0.765,0.314c0.219,0.146,0.393,0.346,0.522,0.594
			c0.129,0.249,0.193,0.56,0.193,0.932c0,0.45-0.117,0.832-0.351,1.147s-0.576,0.515-1.026,0.599l1.62,2.691H205.465z
			 M208.068,106.9c-0.558,1.114-1.311,2.04-2.261,2.774s-2.052,1.279-3.306,1.633c-1.254,0.355-2.578,0.533-3.971,0.533
			c-1.748,0-3.37-0.267-4.864-0.799c-1.495-0.531-2.888-1.393-4.18-2.584l4.218-4.636c0.608,0.812,1.374,1.438,2.299,1.881
			c0.925,0.444,1.881,0.665,2.869,0.665c0.481,0,0.969-0.057,1.463-0.171c0.494-0.114,0.937-0.285,1.33-0.513
			c0.393-0.229,0.709-0.52,0.95-0.875c0.24-0.354,0.361-0.771,0.361-1.254c0-0.811-0.311-1.449-0.931-1.918s-1.4-0.868-2.337-1.197
			c-0.938-0.329-1.951-0.659-3.04-0.988c-1.089-0.329-2.103-0.772-3.04-1.33c-0.938-0.557-1.716-1.292-2.337-2.204
			c-0.621-0.912-0.931-2.115-0.931-3.61c0-1.444,0.285-2.71,0.855-3.8c0.57-1.089,1.33-2.001,2.28-2.736s2.045-1.286,3.287-1.653
			c1.241-0.367,2.521-0.551,3.838-0.551c1.52,0,2.989,0.215,4.408,0.646c1.418,0.431,2.698,1.153,3.838,2.166l-4.066,4.446
			c-0.481-0.608-1.134-1.058-1.957-1.349c-0.824-0.291-1.603-0.437-2.337-0.437c-0.431,0-0.874,0.051-1.33,0.152
			c-0.456,0.102-0.887,0.26-1.292,0.475c-0.406,0.215-0.735,0.5-0.988,0.855c-0.253,0.355-0.38,0.785-0.38,1.292
			c0,0.811,0.304,1.431,0.912,1.862c0.608,0.431,1.374,0.798,2.299,1.102c0.925,0.304,1.919,0.608,2.983,0.912
			c1.064,0.304,2.058,0.735,2.983,1.292c0.924,0.557,1.691,1.305,2.299,2.242c0.608,0.938,0.912,2.192,0.912,3.762
			C208.904,104.481,208.625,105.786,208.068,106.9z M215.014,143H212.8v-1.08h2.214V143z M215.163,58.271l-0.531,1.35h-1.548
			l2.754-6.372h1.161l2.772,6.372h-1.584l-0.549-1.35H215.163z M218.175,84.252h5.928v26.904h-5.928V84.252z M225.795,144.702
			h-4.491v-6.373h4.329v1.297h-2.925v1.188h2.763v1.297h-2.763v1.295h3.087V144.702z M223.182,55.084h-0.018v4.536h-1.404v-6.372
			h1.908l2.709,4.428h0.018v-4.428h1.404v6.372h-1.836L223.182,55.084z M232.356,144.702l-1.557-2.565l-1.512,2.565h-1.665
			l2.232-3.33l-2.106-3.043h1.764l1.359,2.232l1.305-2.232h1.701l-2.061,3.016l2.304,3.357H232.356z M240.663,144.702h-4.491v-6.373
			h4.329v1.297h-2.925v1.188h2.763v1.297h-2.763v1.295h3.087V144.702z M247.593,139.571h-1.818v5.131h-1.404v-5.131h-1.818v-1.242
			h5.04V139.571z M254.199,144.702h-4.49v-6.373h4.328v1.297h-2.924v1.188h2.762v1.297h-2.762v1.295h3.086V144.702z
			 M254.656,107.223c-0.609,0.949-1.395,1.717-2.357,2.299c-0.963,0.583-2.045,1.001-3.248,1.254
			c-1.204,0.254-2.401,0.38-3.591,0.38h-11.02V84.252h10.032c1.165,0,2.337,0.083,3.515,0.247c1.177,0.166,2.236,0.494,3.173,0.988
			c0.936,0.494,1.697,1.185,2.279,2.071c0.582,0.887,0.875,2.065,0.875,3.534c0,1.52-0.426,2.78-1.273,3.781
			c-0.85,1.001-1.971,1.717-3.363,2.147v0.076c0.887,0.127,1.691,0.374,2.412,0.741c0.723,0.367,1.344,0.836,1.863,1.406
			c0.518,0.57,0.918,1.235,1.197,1.995c0.277,0.76,0.418,1.571,0.418,2.433C255.568,105.088,255.263,106.273,254.656,107.223z
			 M254.691,59.621h-1.402l0.387-2.754h-2.727l-0.389,2.754h-1.403l0.892-6.372h1.404l-0.334,2.376h2.727l0.334-2.376h1.404
			L254.691,59.621z M260.103,144.702l-1.332-2.547h-0.693v2.547h-1.403v-6.373h2.466c0.324,0,0.631,0.032,0.922,0.096
			c0.291,0.062,0.546,0.168,0.766,0.314c0.219,0.146,0.393,0.346,0.521,0.594c0.129,0.249,0.193,0.56,0.193,0.932
			c0,0.45-0.116,0.832-0.351,1.147s-0.576,0.515-1.026,0.599l1.62,2.691H260.103z M262.432,54.544h-2.925l-0.171,1.188h2.763
			l-0.181,1.296h-2.763l-0.18,1.296h3.087l-0.18,1.296h-4.491l0.891-6.372h4.329L262.432,54.544z M263.927,84.252h5.928v26.904
			h-5.928V84.252z M272.245,144.593c-0.414,0.18-0.841,0.271-1.278,0.271c-0.498,0-0.957-0.078-1.377-0.234
			s-0.783-0.379-1.089-0.671c-0.307-0.291-0.545-0.644-0.716-1.058s-0.257-0.875-0.257-1.386c0-0.51,0.086-0.972,0.257-1.386
			s0.409-0.767,0.716-1.058c0.306-0.291,0.669-0.515,1.089-0.671s0.879-0.234,1.377-0.234c0.18,0,0.367,0.018,0.562,0.051
			c0.194,0.032,0.387,0.085,0.576,0.156c0.188,0.072,0.37,0.168,0.544,0.289c0.174,0.119,0.33,0.267,0.468,0.44l-1.079,0.882
			c-0.139-0.168-0.308-0.297-0.509-0.387s-0.434-0.135-0.697-0.135c-0.265,0-0.509,0.051-0.733,0.152
			c-0.226,0.103-0.421,0.245-0.586,0.428c-0.165,0.184-0.294,0.4-0.387,0.652s-0.14,0.525-0.14,0.819c0,0.3,0.047,0.575,0.14,0.823
			c0.093,0.25,0.221,0.465,0.383,0.648s0.353,0.325,0.571,0.428c0.219,0.102,0.454,0.152,0.707,0.152c0.287,0,0.543-0.06,0.765-0.18
			s0.405-0.288,0.549-0.504l1.17,0.873C273,144.134,272.658,144.413,272.245,144.593z M273.465,54.544h-2.925l-0.171,1.188h2.763
			l-0.181,1.296h-2.763l-0.18,1.296h3.087l-0.18,1.296h-4.491l0.891-6.372h4.329L273.465,54.544z M275.76,53.249h1.765l1.044,2.232
			l1.62-2.232h1.701l-2.484,3.015l1.836,3.357h-1.764l-1.197-2.565l-1.872,2.565h-1.665l2.7-3.33L275.76,53.249z M281.663,142.901
			c-0.171,0.414-0.41,0.767-0.716,1.058c-0.306,0.292-0.669,0.515-1.089,0.671s-0.879,0.234-1.377,0.234s-0.957-0.078-1.377-0.234
			s-0.783-0.379-1.089-0.671c-0.307-0.291-0.545-0.644-0.716-1.058s-0.257-0.875-0.257-1.386c0-0.51,0.086-0.972,0.257-1.386
			s0.409-0.767,0.716-1.058c0.306-0.291,0.669-0.515,1.089-0.671s0.879-0.234,1.377-0.234s0.957,0.078,1.377,0.234
			s0.783,0.38,1.089,0.671s0.545,0.644,0.716,1.058s0.256,0.876,0.256,1.386C281.918,142.026,281.833,142.487,281.663,142.901z
			 M288.282,144.702h-4.005v-6.373h1.404v5.076h2.601V144.702z M290.214,56.435c-0.072,0.51-0.222,0.972-0.45,1.386
			c-0.228,0.414-0.516,0.766-0.864,1.057c-0.348,0.292-0.742,0.515-1.183,0.671c-0.441,0.156-0.911,0.234-1.409,0.234
			s-0.946-0.078-1.346-0.234c-0.398-0.156-0.73-0.379-0.994-0.671c-0.264-0.291-0.453-0.644-0.567-1.057
			c-0.113-0.414-0.135-0.876-0.062-1.386c0.072-0.51,0.224-0.972,0.454-1.386c0.231-0.414,0.52-0.767,0.864-1.058
			s0.739-0.515,1.184-0.67c0.444-0.156,0.915-0.234,1.413-0.234s0.945,0.078,1.341,0.234c0.396,0.156,0.726,0.379,0.99,0.67
			c0.264,0.291,0.453,0.644,0.566,1.058C290.265,55.462,290.287,55.925,290.214,56.435z M294.464,144.702h-4.005v-6.373h1.404v5.076
			h2.601V144.702z M301.034,144.702l-0.549-1.351h-2.475l-0.531,1.351h-1.548l2.754-6.373h1.161l2.771,6.373H301.034z
			 M309.386,143.77c-0.144,0.225-0.33,0.406-0.558,0.544s-0.484,0.237-0.77,0.298c-0.285,0.06-0.568,0.09-0.851,0.09h-2.609v-6.373
			h2.376c0.275,0,0.553,0.02,0.832,0.059s0.529,0.117,0.752,0.234c0.222,0.117,0.401,0.281,0.54,0.49
			c0.138,0.211,0.207,0.489,0.207,0.838c0,0.359-0.101,0.658-0.302,0.895c-0.201,0.237-0.467,0.406-0.797,0.509v0.019
			c0.21,0.029,0.4,0.088,0.571,0.176c0.171,0.086,0.318,0.197,0.441,0.332s0.218,0.293,0.283,0.473c0.066,0.18,0.1,0.372,0.1,0.576
			C309.603,143.264,309.531,143.544,309.386,143.77z M306.638,100.668h-4.332v10.488h-5.928V84.252h9.994
			c1.393,0,2.71,0.127,3.951,0.38c1.241,0.253,2.324,0.69,3.249,1.311c0.925,0.621,1.659,1.457,2.204,2.508
			c0.545,1.052,0.817,2.375,0.817,3.971c0,1.571-0.254,2.888-0.76,3.952c-0.508,1.064-1.204,1.913-2.091,2.546
			s-1.938,1.083-3.153,1.349C309.375,100.535,308.056,100.668,306.638,100.668z M318.058,142.901
			c-0.171,0.414-0.41,0.767-0.716,1.058c-0.306,0.292-0.669,0.515-1.089,0.671s-0.879,0.234-1.377,0.234s-0.957-0.078-1.377-0.234
			s-0.783-0.379-1.089-0.671c-0.307-0.291-0.545-0.644-0.716-1.058s-0.257-0.875-0.257-1.386c0-0.51,0.086-0.972,0.257-1.386
			s0.409-0.767,0.716-1.058c0.306-0.291,0.669-0.515,1.089-0.671s0.879-0.234,1.377-0.234s0.957,0.078,1.377,0.234
			s0.783,0.38,1.089,0.671s0.545,0.644,0.716,1.058s0.256,0.876,0.256,1.386C318.314,142.026,318.229,142.487,318.058,142.901z
			 M318.833,59.621h-1.836l-2.15-4.536h-0.019l-0.63,4.536h-1.403l0.891-6.372h1.908l2.088,4.428h0.018l0.621-4.428h1.404
			L318.833,59.621z M324.047,144.702l-1.332-2.547h-0.693v2.547h-1.403v-6.373h2.466c0.324,0,0.631,0.032,0.922,0.096
			c0.291,0.062,0.546,0.168,0.766,0.314c0.219,0.146,0.393,0.346,0.521,0.594c0.129,0.249,0.193,0.56,0.193,0.932
			c0,0.45-0.116,0.832-0.351,1.147s-0.576,0.515-1.026,0.599l1.62,2.691H324.047z M332.246,144.702l-0.549-1.351h-2.475
			l-0.531,1.351h-1.548l2.754-6.373h1.161l2.771,6.373H332.246z M339.446,139.571h-1.817v5.131h-1.404v-5.131h-1.817v-1.242h5.039
			V139.571z M334.112,100.402h-2.926v10.754h-5.928V84.252h10.412c1.367,0,2.665,0.133,3.895,0.399
			c1.229,0.266,2.305,0.709,3.23,1.33c0.924,0.621,1.658,1.457,2.203,2.508c0.545,1.052,0.817,2.362,0.817,3.933
			c0,1.9-0.494,3.515-1.482,4.845c-0.987,1.33-2.432,2.173-4.331,2.527l6.84,11.362h-7.106L334.112,100.402z M342.893,144.702
			h-1.404v-6.373h1.404V144.702z M351.798,142.901c-0.171,0.414-0.41,0.767-0.716,1.058c-0.306,0.292-0.669,0.515-1.089,0.671
			s-0.879,0.234-1.377,0.234s-0.957-0.078-1.377-0.234s-0.783-0.379-1.089-0.671c-0.307-0.291-0.545-0.644-0.716-1.058
			s-0.257-0.875-0.257-1.386c0-0.51,0.086-0.972,0.257-1.386s0.409-0.767,0.716-1.058c0.306-0.291,0.669-0.515,1.089-0.671
			s0.879-0.234,1.377-0.234s0.957,0.078,1.377,0.234s0.783,0.38,1.089,0.671s0.545,0.644,0.716,1.058s0.256,0.876,0.256,1.386
			C352.054,142.026,351.969,142.487,351.798,142.901z M353.287,53.249h4.329v1.296h-2.925v1.188h2.763v1.296h-2.763v1.296h3.087
			v1.296h-4.491V53.249z M360.397,144.702h-1.836l-2.78-4.537h-0.019v4.537h-1.403v-6.373h1.907l2.709,4.429h0.019v-4.429h1.403
			V144.702z M374.011,111.156h-18.962V84.252h18.278v5.472h-12.351v5.016h11.666v5.472h-11.666v5.472h13.034V111.156z
			 M400.269,106.9c-0.558,1.114-1.311,2.04-2.261,2.774s-2.052,1.279-3.306,1.633c-1.254,0.355-2.578,0.533-3.972,0.533
			c-1.748,0-3.369-0.267-4.863-0.799c-1.495-0.531-2.889-1.393-4.181-2.584l4.219-4.636c0.607,0.812,1.373,1.438,2.299,1.881
			c0.924,0.444,1.881,0.665,2.869,0.665c0.48,0,0.969-0.057,1.463-0.171s0.937-0.285,1.33-0.513c0.393-0.229,0.709-0.52,0.949-0.875
			c0.241-0.354,0.361-0.771,0.361-1.254c0-0.811-0.311-1.449-0.931-1.918c-0.621-0.469-1.4-0.868-2.337-1.197
			c-0.938-0.329-1.951-0.659-3.04-0.988c-1.09-0.329-2.104-0.772-3.04-1.33c-0.938-0.557-1.717-1.292-2.337-2.204
			c-0.621-0.912-0.932-2.115-0.932-3.61c0-1.444,0.285-2.71,0.855-3.8c0.57-1.089,1.33-2.001,2.28-2.736
			c0.949-0.735,2.045-1.286,3.286-1.653c1.241-0.367,2.521-0.551,3.839-0.551c1.52,0,2.988,0.215,4.407,0.646
			c1.419,0.431,2.698,1.153,3.838,2.166l-4.065,4.446c-0.481-0.608-1.134-1.058-1.957-1.349c-0.823-0.291-1.603-0.437-2.337-0.437
			c-0.432,0-0.874,0.051-1.33,0.152c-0.456,0.102-0.887,0.26-1.292,0.475s-0.735,0.5-0.988,0.855
			c-0.253,0.355-0.38,0.785-0.38,1.292c0,0.811,0.304,1.431,0.912,1.862c0.608,0.431,1.374,0.798,2.299,1.102
			c0.925,0.304,1.919,0.608,2.983,0.912c1.063,0.304,2.058,0.735,2.982,1.292s1.691,1.305,2.299,2.242
			c0.608,0.938,0.912,2.192,0.912,3.762C401.105,104.481,400.827,105.786,400.269,106.9z M427.02,106.9
			c-0.558,1.114-1.311,2.04-2.261,2.774s-2.052,1.279-3.306,1.633c-1.254,0.355-2.578,0.533-3.972,0.533
			c-1.748,0-3.369-0.267-4.863-0.799c-1.495-0.531-2.889-1.393-4.181-2.584l4.219-4.636c0.607,0.812,1.373,1.438,2.299,1.881
			c0.924,0.444,1.881,0.665,2.869,0.665c0.48,0,0.969-0.057,1.463-0.171s0.937-0.285,1.33-0.513c0.393-0.229,0.709-0.52,0.949-0.875
			c0.241-0.354,0.361-0.771,0.361-1.254c0-0.811-0.311-1.449-0.931-1.918c-0.621-0.469-1.4-0.868-2.337-1.197
			c-0.938-0.329-1.951-0.659-3.04-0.988c-1.09-0.329-2.104-0.772-3.04-1.33c-0.938-0.557-1.717-1.292-2.337-2.204
			c-0.621-0.912-0.932-2.115-0.932-3.61c0-1.444,0.285-2.71,0.855-3.8c0.57-1.089,1.33-2.001,2.28-2.736
			c0.949-0.735,2.045-1.286,3.286-1.653c1.241-0.367,2.521-0.551,3.839-0.551c1.52,0,2.988,0.215,4.407,0.646
			c1.419,0.431,2.698,1.153,3.838,2.166l-4.065,4.446c-0.481-0.608-1.134-1.058-1.957-1.349c-0.823-0.291-1.603-0.437-2.337-0.437
			c-0.432,0-0.874,0.051-1.33,0.152c-0.456,0.102-0.887,0.26-1.292,0.475s-0.735,0.5-0.988,0.855
			c-0.253,0.355-0.38,0.785-0.38,1.292c0,0.811,0.304,1.431,0.912,1.862c0.608,0.431,1.374,0.798,2.299,1.102
			c0.925,0.304,1.919,0.608,2.983,0.912c1.063,0.304,2.058,0.735,2.982,1.292s1.691,1.305,2.299,2.242
			c0.608,0.938,0.912,2.192,0.912,3.762C427.856,104.481,427.578,105.786,427.02,106.9z M185.62,54.562
			c-0.111-0.054-0.237-0.088-0.378-0.104c-0.141-0.015-0.277-0.022-0.409-0.022h-0.72l-0.207,1.512h0.936
			c0.126,0,0.249-0.012,0.369-0.036c0.12-0.024,0.231-0.064,0.333-0.122c0.102-0.057,0.189-0.135,0.261-0.234
			c0.072-0.099,0.117-0.224,0.135-0.374c0.024-0.162,0.004-0.292-0.059-0.392S185.731,54.617,185.62,54.562z M174.082,140.075
			c-0.198-0.149-0.431-0.262-0.697-0.337c-0.267-0.075-0.548-0.112-0.842-0.112h-0.828v3.779h0.729c0.324,0,0.626-0.033,0.905-0.099
			s0.521-0.175,0.725-0.329c0.204-0.152,0.364-0.354,0.481-0.603c0.117-0.249,0.175-0.554,0.175-0.913
			c0-0.312-0.059-0.584-0.175-0.814C174.438,140.416,174.28,140.225,174.082,140.075z M350.056,140.043
			c-0.174-0.183-0.382-0.325-0.625-0.428c-0.243-0.102-0.515-0.152-0.814-0.152s-0.571,0.051-0.814,0.152
			c-0.243,0.103-0.452,0.245-0.626,0.428c-0.174,0.184-0.308,0.4-0.4,0.652s-0.14,0.525-0.14,0.819c0,0.3,0.047,0.575,0.14,0.823
			c0.093,0.25,0.227,0.465,0.4,0.648s0.383,0.325,0.626,0.428c0.243,0.102,0.515,0.152,0.814,0.152s0.571-0.051,0.814-0.152
			c0.243-0.103,0.451-0.244,0.625-0.428c0.175-0.184,0.308-0.398,0.401-0.648c0.093-0.248,0.139-0.523,0.139-0.823
			c0-0.294-0.046-0.567-0.139-0.819C350.364,140.444,350.231,140.227,350.056,140.043z M308.042,55.103l-1.053,1.98h1.557
			L308.042,55.103z M338.178,89.819c-0.432-0.215-0.926-0.361-1.482-0.437c-0.558-0.076-1.102-0.114-1.634-0.114h-3.876v6.118h3.496
			c0.532,0,1.096-0.019,1.69-0.057c0.596-0.038,1.134-0.152,1.615-0.342s0.88-0.487,1.197-0.893c0.316-0.405,0.475-0.975,0.475-1.71
			c0-0.684-0.14-1.229-0.418-1.634S338.609,90.034,338.178,89.819z M329.663,142.163h1.558l-0.783-1.979L329.663,142.163z
			 M247.967,100.554c-0.482-0.203-1.001-0.342-1.558-0.418c-0.558-0.076-1.077-0.114-1.558-0.114h-4.484v6.117h5.32
			c0.456,0,0.918-0.05,1.387-0.151c0.468-0.101,0.893-0.278,1.273-0.532c0.38-0.253,0.689-0.582,0.932-0.988
			c0.24-0.404,0.36-0.898,0.36-1.481c0-0.633-0.159-1.146-0.476-1.539C248.847,101.054,248.448,100.757,247.967,100.554z
			 M328.2,55.913c0.117-0.024,0.222-0.064,0.315-0.122c0.093-0.057,0.167-0.135,0.225-0.234c0.057-0.099,0.085-0.224,0.085-0.374
			c0-0.162-0.037-0.292-0.112-0.392s-0.171-0.175-0.288-0.229c-0.116-0.054-0.247-0.088-0.392-0.104
			c-0.144-0.015-0.281-0.022-0.413-0.022h-0.721v1.512h0.937C327.961,55.949,328.083,55.937,328.2,55.913z"/>
	</g>
</g>
</svg>
